<svg xmlns="http://www.w3.org/2000/svg" width="1600" height="900" viewBox="0 0 1600 900">
    <defs><linearGradient id="bg" x1="0" y1="0" x2="1" y2="1"><stop stop-color="#f8fafc"/><stop offset="1" stop-color="#e2e8f0"/></linearGradient>
    <marker id="arrow" markerWidth="12" markerHeight="12" refX="10" refY="6" orient="auto"><path d="M0,0 L12,6 L0,12 z" fill="#6b7280"/></marker></defs>
    <rect width="100%" height="100%" fill="url(#bg)"/>
    <text x="80" y="70" font-size="42" font-family="Arial" font-weight="800" fill="#111827">Global Multi-Region Application</text>
    <text x="82" y="112" font-size="22" font-family="Arial" fill="#475569">Active-active architecture with regional isolation</text>
    <line x1="230.0" y1="222.5" x2="600.0" y2="222.5" stroke="#6b7280" stroke-width="4" marker-end="url(#arrow)"/><line x1="600.0" y1="222.5" x2="970.0" y2="222.5" stroke="#6b7280" stroke-width="4" marker-end="url(#arrow)"/><line x1="600.0" y1="222.5" x2="1340.0" y2="222.5" stroke="#6b7280" stroke-width="4" marker-end="url(#arrow)"/><line x1="970.0" y1="222.5" x2="230.0" y2="447.5" stroke="#6b7280" stroke-width="4" marker-end="url(#arrow)"/><line x1="1340.0" y1="222.5" x2="600.0" y2="447.5" stroke="#6b7280" stroke-width="4" marker-end="url(#arrow)"/><line x1="230.0" y1="447.5" x2="970.0" y2="447.5" stroke="#6b7280" stroke-width="4" marker-end="url(#arrow)"/><line x1="600.0" y1="447.5" x2="1340.0" y2="447.5" stroke="#6b7280" stroke-width="4" marker-end="url(#arrow)"/><line x1="970.0" y1="447.5" x2="1340.0" y2="447.5" stroke="#6b7280" stroke-width="4" marker-end="url(#arrow)"/>
    <rect x="90" y="170" rx="18" width="280" height="105" fill="#ff9900" opacity="0.95"/><text x="230.0" y="215" fill="white" font-size="24" text-anchor="middle" font-family="Arial" font-weight="700">Global Users</text><rect x="460" y="170" rx="18" width="280" height="105" fill="#4b9cd3" opacity="0.95"/><text x="600.0" y="215" fill="white" font-size="24" text-anchor="middle" font-family="Arial" font-weight="700">Route 53 / Global Accelerator</text><rect x="830" y="170" rx="18" width="280" height="105" fill="#7aa116" opacity="0.95"/><text x="970.0" y="215" fill="white" font-size="24" text-anchor="middle" font-family="Arial" font-weight="700">Region A</text><rect x="1200" y="170" rx="18" width="280" height="105" fill="#8e44ad" opacity="0.95"/><text x="1340.0" y="215" fill="white" font-size="24" text-anchor="middle" font-family="Arial" font-weight="700">Region B</text><rect x="90" y="395" rx="18" width="280" height="105" fill="#d35400" opacity="0.95"/><text x="230.0" y="440" fill="white" font-size="24" text-anchor="middle" font-family="Arial" font-weight="700">App Stack A</text><rect x="460" y="395" rx="18" width="280" height="105" fill="#1abc9c" opacity="0.95"/><text x="600.0" y="440" fill="white" font-size="24" text-anchor="middle" font-family="Arial" font-weight="700">App Stack B</text><rect x="830" y="395" rx="18" width="280" height="105" fill="#c0392b" opacity="0.95"/><text x="970.0" y="440" fill="white" font-size="24" text-anchor="middle" font-family="Arial" font-weight="700">Aurora / DynamoDB A</text><rect x="1200" y="395" rx="18" width="280" height="105" fill="#2c3e50" opacity="0.95"/><text x="1340.0" y="440" fill="white" font-size="24" text-anchor="middle" font-family="Arial" font-weight="700">Aurora / DynamoDB B</text>
    <text x="80" y="850" font-size="18" font-family="Arial" fill="#64748b">Synthetic reference architecture for learning and portfolio use. Replace placeholders before deployment.</text>
    </svg>
