<svg xmlns="http://www.w3.org/2000/svg" width="1800" height="1120" viewBox="0 0 1800 1120">
<defs><marker id="arrow" markerWidth="10" markerHeight="10" refX="8" refY="5" orient="auto"><path d="M0,0 L10,5 L0,10 z" fill="#475569"/></marker><filter id="shadow"><feDropShadow dx="0" dy="3" stdDeviation="4" flood-opacity=".18"/></filter></defs>
<rect width="1800" height="1120" fill="#f8fafc"/>
<text x="55" y="55" font-family="Arial" font-size="36" font-weight="700" fill="#111827">Secure Multi-AZ Three-Tier AWS Architecture</text>
<text x="55" y="88" font-family="Arial" font-size="18" fill="#475569">Internet edge, public ingress, private compute, isolated data, VPC endpoints, security telemetry, and two Availability Zones</text>
<!-- edge -->
<rect x="55" y="120" width="1690" height="105" rx="16" fill="#fff7ed" stroke="#f59e0b" stroke-width="2"/>
<text x="75" y="147" font-family="Arial" font-size="18" font-weight="700">AWS Edge and Global Services</text>
<rect x="110" y="165" width="190" height="42" rx="10" fill="#8e44ad"/><text x="205" y="191" text-anchor="middle" fill="white" font-family="Arial" font-size="16">Route 53</text>
<rect x="340" y="165" width="190" height="42" rx="10" fill="#8e44ad"/><text x="435" y="191" text-anchor="middle" fill="white" font-family="Arial" font-size="16">CloudFront</text>
<rect x="570" y="165" width="190" height="42" rx="10" fill="#c0392b"/><text x="665" y="191" text-anchor="middle" fill="white" font-family="Arial" font-size="16">AWS WAF / Shield</text>
<line x1="300" y1="186" x2="335" y2="186" stroke="#475569" stroke-width="3" marker-end="url(#arrow)"/><line x1="530" y1="186" x2="565" y2="186" stroke="#475569" stroke-width="3" marker-end="url(#arrow)"/>
<!-- region -->
<rect x="55" y="250" width="1690" height="785" rx="20" fill="#ffffff" stroke="#2563eb" stroke-width="3"/>
<text x="78" y="282" font-family="Arial" font-size="20" font-weight="700" fill="#1d4ed8">AWS Region — us-east-1</text>
<rect x="85" y="305" width="1630" height="680" rx="18" fill="#f0fdf4" stroke="#16a34a" stroke-width="3"/>
<text x="108" y="337" font-family="Arial" font-size="20" font-weight="700" fill="#166534">Application VPC — 10.20.0.0/16</text>
<!-- IGW / endpoints -->
<rect x="745" y="318" width="220" height="42" rx="9" fill="#f59e0b"/><text x="855" y="344" text-anchor="middle" fill="white" font-family="Arial" font-size="16">Internet Gateway</text>
<rect x="1040" y="318" width="280" height="42" rx="9" fill="#0f766e"/><text x="1180" y="344" text-anchor="middle" fill="white" font-family="Arial" font-size="16">Interface / Gateway Endpoints</text>
<line x1="665" y1="207" x2="855" y2="313" stroke="#475569" stroke-width="3" marker-end="url(#arrow)"/>
<!-- AZ A -->
<rect x="115" y="385" width="755" height="560" rx="16" fill="#eff6ff" stroke="#3b82f6" stroke-width="2"/>
<text x="140" y="415" font-family="Arial" font-size="18" font-weight="700">Availability Zone A</text>
<rect x="145" y="440" width="695" height="130" rx="12" fill="#e0f2fe" stroke="#0284c7" stroke-width="2"/><text x="165" y="468" font-family="Arial" font-weight="700">Public Subnet A — 10.20.0.0/24</text>
<rect x="205" y="492" width="235" height="52" rx="10" fill="#2563eb" filter="url(#shadow)"/><text x="323" y="524" text-anchor="middle" fill="white" font-family="Arial" font-size="16">Application Load Balancer</text>
<rect x="525" y="492" width="210" height="52" rx="10" fill="#f59e0b"/><text x="630" y="524" text-anchor="middle" fill="white" font-family="Arial" font-size="16">NAT Gateway A</text>
<rect x="145" y="590" width="695" height="150" rx="12" fill="#ecfdf5" stroke="#10b981" stroke-width="2"/><text x="165" y="618" font-family="Arial" font-weight="700">Private Application Subnet A — 10.20.10.0/24</text>
<rect x="250" y="650" width="220" height="58" rx="10" fill="#f97316"/><text x="360" y="684" text-anchor="middle" fill="white" font-family="Arial" font-size="16">ECS / EKS / EC2 Service</text>
<rect x="520" y="650" width="210" height="58" rx="10" fill="#7c3aed"/><text x="625" y="684" text-anchor="middle" fill="white" font-family="Arial" font-size="16">ElastiCache Node</text>
<rect x="145" y="760" width="695" height="150" rx="12" fill="#fefce8" stroke="#ca8a04" stroke-width="2"/><text x="165" y="788" font-family="Arial" font-weight="700">Isolated Data Subnet A — 10.20.20.0/24</text>
<rect x="320" y="823" width="330" height="58" rx="10" fill="#2563eb"/><text x="485" y="857" text-anchor="middle" fill="white" font-family="Arial" font-size="16">Aurora / RDS Primary</text>
<!-- AZ B -->
<rect x="900" y="385" width="785" height="560" rx="16" fill="#eff6ff" stroke="#3b82f6" stroke-width="2"/>
<text x="925" y="415" font-family="Arial" font-size="18" font-weight="700">Availability Zone B</text>
<rect x="930" y="440" width="725" height="130" rx="12" fill="#e0f2fe" stroke="#0284c7" stroke-width="2"/><text x="950" y="468" font-family="Arial" font-weight="700">Public Subnet B — 10.20.1.0/24</text>
<rect x="990" y="492" width="235" height="52" rx="10" fill="#2563eb" filter="url(#shadow)"/><text x="1108" y="524" text-anchor="middle" fill="white" font-family="Arial" font-size="16">ALB Node / ENI</text>
<rect x="1310" y="492" width="210" height="52" rx="10" fill="#f59e0b"/><text x="1415" y="524" text-anchor="middle" fill="white" font-family="Arial" font-size="16">NAT Gateway B</text>
<rect x="930" y="590" width="725" height="150" rx="12" fill="#ecfdf5" stroke="#10b981" stroke-width="2"/><text x="950" y="618" font-family="Arial" font-weight="700">Private Application Subnet B — 10.20.11.0/24</text>
<rect x="1050" y="650" width="220" height="58" rx="10" fill="#f97316"/><text x="1160" y="684" text-anchor="middle" fill="white" font-family="Arial" font-size="16">ECS / EKS / EC2 Service</text>
<rect x="1330" y="650" width="210" height="58" rx="10" fill="#7c3aed"/><text x="1435" y="684" text-anchor="middle" fill="white" font-family="Arial" font-size="16">ElastiCache Node</text>
<rect x="930" y="760" width="725" height="150" rx="12" fill="#fefce8" stroke="#ca8a04" stroke-width="2"/><text x="950" y="788" font-family="Arial" font-weight="700">Isolated Data Subnet B — 10.20.21.0/24</text>
<rect x="1115" y="823" width="330" height="58" rx="10" fill="#2563eb"/><text x="1280" y="857" text-anchor="middle" fill="white" font-family="Arial" font-size="16">Aurora / RDS Standby</text>
<!-- app/data flows -->
<line x1="855" y1="360" x2="323" y2="487" stroke="#475569" stroke-width="3" marker-end="url(#arrow)"/><line x1="855" y1="360" x2="1108" y2="487" stroke="#475569" stroke-width="3" marker-end="url(#arrow)"/>
<line x1="323" y1="544" x2="360" y2="645" stroke="#475569" stroke-width="3" marker-end="url(#arrow)"/><line x1="1108" y1="544" x2="1160" y2="645" stroke="#475569" stroke-width="3" marker-end="url(#arrow)"/>
<line x1="360" y1="708" x2="485" y2="818" stroke="#475569" stroke-width="3" marker-end="url(#arrow)"/><line x1="1160" y1="708" x2="1280" y2="818" stroke="#475569" stroke-width="3" marker-end="url(#arrow)"/>
<line x1="650" y1="852" x2="1110" y2="852" stroke="#2563eb" stroke-width="4" stroke-dasharray="9,7" marker-end="url(#arrow)"/>
<!-- observability -->
<rect x="85" y="1000" width="1630" height="85" rx="15" fill="#f1f5f9" stroke="#64748b" stroke-width="2"/>
<text x="110" y="1028" font-family="Arial" font-size="17" font-weight="700">Security and Observability Plane</text>
<text x="110" y="1060" font-family="Arial" font-size="16">CloudTrail · Config · GuardDuty · Security Hub · VPC Flow Logs · CloudWatch Logs/Metrics · X-Ray/OpenTelemetry · KMS · Secrets Manager · AWS Backup</text>
</svg>